<svg width="0" height="0" class="hidden">
  <symbol  xmlns="http://www.w3.org/2000/svg" viewBox="0 0 24 24" id="call">
    <path d="M14.1279 6.44035C14.968 6.60425 15.74 7.01511 16.3453 7.62033C16.9505 8.22556 17.3613 8.99761 17.5252 9.83769M14.1279 3C15.8733 3.19389 17.5008 3.97549 18.7433 5.21645C19.9859 6.45741 20.7695 8.08398 20.9656 9.82909M20.1055 16.6926V19.2728C20.1065 19.5124 20.0574 19.7495 19.9615 19.969C19.8655 20.1884 19.7247 20.3854 19.5482 20.5474C19.3717 20.7093 19.1633 20.8326 18.9364 20.9093C18.7095 20.9861 18.4691 21.0146 18.2305 20.993C15.5839 20.7054 13.0416 19.8011 10.808 18.3526C8.72985 17.032 6.96797 15.2701 5.64745 13.192C4.19388 10.9482 3.2893 8.3936 3.00698 5.73508C2.98549 5.49723 3.01375 5.25752 3.08998 5.0312C3.16621 4.80488 3.28872 4.59691 3.44972 4.42054C3.61073 4.24416 3.80669 4.10324 4.02514 4.00675C4.24359 3.91026 4.47974 3.86031 4.71855 3.86009H7.29881C7.71622 3.85598 8.12088 4.00379 8.43736 4.27597C8.75385 4.54815 8.96057 4.92612 9.01899 5.33944C9.12789 6.16518 9.32987 6.97595 9.62105 7.75628C9.73677 8.06413 9.76181 8.39869 9.69322 8.72034C9.62462 9.04198 9.46526 9.33722 9.23401 9.57106L8.1417 10.6634C9.36608 12.8166 11.149 14.5995 13.3022 15.8239L14.3945 14.7316C14.6284 14.5003 14.9236 14.341 15.2453 14.2724C15.5669 14.2038 15.9015 14.2288 16.2093 14.3445C16.9896 14.6357 17.8004 14.8377 18.6262 14.9466C19.044 15.0055 19.4255 15.216 19.6983 15.5379C19.971 15.8598 20.116 16.2708 20.1055 16.6926Z"  stroke-linecap="round" stroke-linejoin="round"></path>
  </symbol>
  <symbol  xmlns="http://www.w3.org/2000/svg" viewBox="0 0 24 24" id="cansel">
    <path d="M18 6L6 18M6 6L18 18"  stroke-linecap="round" stroke-linejoin="round"></path>
  </symbol>
  <symbol  xmlns="http://www.w3.org/2000/svg" viewBox="0 0 24 24" id="check">
    <path d="M20 7L9 18L4 13"  stroke-linecap="round" stroke-linejoin="round"></path>
  </symbol>
  <symbol  xmlns="http://www.w3.org/2000/svg" viewBox="0 0 24 24" id="chevron-down">
    <path d="M6 9L12 15L18 9"  stroke-linecap="round" stroke-linejoin="round"></path>
  </symbol>
  <symbol  xmlns="http://www.w3.org/2000/svg" viewBox="0 0 24 24" id="chevron-left">
    <path d="M15 18L9 12L15 6"  stroke-linecap="round" stroke-linejoin="round"></path>
  </symbol>
  <symbol  xmlns="http://www.w3.org/2000/svg" viewBox="0 0 24 24" id="chevron-right">
    <path d="M9 18L15 12L9 6"  stroke-linecap="round" stroke-linejoin="round"></path>
  </symbol>
  <symbol  xmlns="http://www.w3.org/2000/svg" viewBox="0 0 24 24" id="chevron-up">
    <path d="M18 15L12 9L6 15"  stroke-linecap="round" stroke-linejoin="round"></path>
  </symbol>
  <symbol  xmlns="http://www.w3.org/2000/svg" viewBox="0 0 24 24" id="clock">
    <path d="M12 6.6V12L15.6 13.8M21 12C21 16.9706 16.9706 21 12 21C7.02944 21 3 16.9706 3 12C3 7.02944 7.02944 3 12 3C16.9706 3 21 7.02944 21 12Z"  stroke-linecap="round" stroke-linejoin="round"></path>
  </symbol>
  <symbol  xmlns="http://www.w3.org/2000/svg" viewBox="0 0 24 24" id="corner-up-left">
    <path d="M9 14L4 9M4 9L9 4M4 9H16C17.0609 9 18.0783 9.42143 18.8284 10.1716C19.5786 10.9217 20 11.9391 20 13V20"  stroke-linecap="round" stroke-linejoin="round"></path>
  </symbol>
  <symbol  xmlns="http://www.w3.org/2000/svg" viewBox="0 0 24 24" id="credit-card">
    <path d="M2 10.25H22M3.81818 5H20.1818C21.186 5 22 5.7835 22 6.75V17.25C22 18.2165 21.186 19 20.1818 19H3.81818C2.81403 19 2 18.2165 2 17.25V6.75C2 5.7835 2.81403 5 3.81818 5Z"  stroke-linecap="round" stroke-linejoin="round"></path>
  </symbol>
  <symbol  xmlns="http://www.w3.org/2000/svg" viewBox="0 0 24 24" id="facebook">
    <path d="M16.3248 4.00333L14.2499 4C11.9189 4 10.4124 5.54554 10.4124 7.93766V9.75319H8.32625C8.14598 9.75319 8 9.89934 8 10.0796V12.7101C8 12.8904 8.14615 13.0363 8.32625 13.0363H10.4124V19.6739C10.4124 19.8542 10.5584 20.0002 10.7387 20.0002H13.4606C13.6408 20.0002 13.7868 19.854 13.7868 19.6739V13.0363H16.226C16.4063 13.0363 16.5523 12.8904 16.5523 12.7101L16.5533 10.0796C16.5533 9.99305 16.5188 9.91016 16.4578 9.8489C16.3967 9.78764 16.3134 9.75319 16.2269 9.75319H13.7868V8.21414C13.7868 7.47442 13.9631 7.0989 14.9267 7.0989L16.3244 7.0984C16.5045 7.0984 16.6505 6.95225 16.6505 6.77214V4.32958C16.6505 4.14964 16.5047 4.00366 16.3248 4.00333Z" ></path>
  </symbol>
  <symbol  xmlns="http://www.w3.org/2000/svg" viewBox="0 0 24 24" id="filter">
    <path d="M4.72727 20.3636V14M4.72727 10.3636V4M12 20.3636V12.1818M12 8.54545V4M19.2727 20.3636V15.8182M19.2727 12.1818V4M2 14H7.45455M9.27273 8.54545H14.7273M16.5455 15.8182H22"  stroke-linecap="round" stroke-linejoin="round"></path>
  </symbol>
  <symbol  xmlns="http://www.w3.org/2000/svg" viewBox="0 0 24 24" id="globe">
    <path d="M21 12C21 16.9706 16.9706 21 12 21M21 12C21 7.02944 16.9706 3 12 3M21 12H3M12 21C7.02944 21 3 16.9706 3 12M12 21C14.2512 18.5355 15.5305 15.3372 15.6 12C15.5305 8.66283 14.2512 5.46452 12 3M12 21C9.74885 18.5355 8.46952 15.3372 8.4 12C8.46952 8.66283 9.74885 5.46452 12 3M3 12C3 7.02944 7.02944 3 12 3"  stroke-linecap="round" stroke-linejoin="round"></path>
  </symbol>
  <symbol  xmlns="http://www.w3.org/2000/svg" viewBox="0 0 24 24" id="grid">
    <path d="M10 3H3V10H10V3Z"  stroke-linecap="round" stroke-linejoin="round"></path>
    <path d="M21 3H14V10H21V3Z"  stroke-linecap="round" stroke-linejoin="round"></path>
    <path d="M21 14H14V21H21V14Z"  stroke-linecap="round" stroke-linejoin="round"></path>
    <path d="M10 14H3V21H10V14Z"  stroke-linecap="round" stroke-linejoin="round"></path>
  </symbol>
  <symbol  xmlns="http://www.w3.org/2000/svg" viewBox="0 0 24 24" id="heart">
    <path d="M21.046 4.59133C20.5417 4.08683 19.943 3.68663 19.284 3.41358C18.6251 3.14054 17.9188 3 17.2055 3C16.4922 3 15.7858 3.14054 15.1269 3.41358C14.4679 3.68663 13.8692 4.08683 13.3649 4.59133L12.3184 5.63785L11.2719 4.59133C10.2533 3.57276 8.87182 3.00053 7.43134 3.00053C5.99086 3.00053 4.60938 3.57276 3.5908 4.59133C2.57223 5.6099 2 6.99139 2 8.43187C2 9.87235 2.57223 11.2538 3.5908 12.2724L4.63732 13.3189L12.3184 21L19.9995 13.3189L21.046 12.2724C21.5505 11.7681 21.9507 11.1694 22.2237 10.5105C22.4968 9.85148 22.6373 9.14517 22.6373 8.43187C22.6373 7.71857 22.4968 7.01225 22.2237 6.35328C21.9507 5.69431 21.5505 5.09559 21.046 4.59133V4.59133Z"  stroke-linecap="round" stroke-linejoin="round"></path>
  </symbol>
  <symbol  xmlns="http://www.w3.org/2000/svg" viewBox="0 0 24 24" id="heart-filled">
    <path fill-rule="evenodd" clip-rule="evenodd" d="M14.5444 3.4345C15.2367 3.14764 15.9787 3 16.7281 3C17.4775 3 18.2195 3.14764 18.9118 3.4345C19.6041 3.72135 20.2331 4.1418 20.7629 4.67181C21.2928 5.20152 21.7131 5.83044 22 6.52264C22.2868 7.21493 22.4345 7.95696 22.4345 8.70634C22.4345 9.45572 22.2868 10.1977 22 10.89C21.7131 11.5823 21.2927 12.2112 20.7628 12.741L12.7065 20.7972C12.4362 21.0676 11.9978 21.0676 11.7274 20.7972L3.67121 12.741C2.60115 11.6709 2 10.2196 2 8.70634C2 7.19305 2.60115 5.74175 3.67121 4.67169C4.74126 3.60164 6.19257 3.00049 7.70585 3.00049C9.21914 3.00049 10.6704 3.60164 11.7405 4.67169L12.217 5.14818L12.6934 4.67181C13.2231 4.1418 13.8521 3.72135 14.5444 3.4345Z" fill="#101828"></path>
  </symbol>
  <symbol  xmlns="http://www.w3.org/2000/svg" viewBox="0 0 24 24" id="heart-filled-1">
    <path fill-rule="evenodd" clip-rule="evenodd" d="M14.5444 3.4345C15.2367 3.14764 15.9787 3 16.7281 3C17.4775 3 18.2195 3.14764 18.9118 3.4345C19.6041 3.72135 20.2331 4.1418 20.7629 4.67181C21.2928 5.20152 21.7131 5.83044 22 6.52264C22.2868 7.21493 22.4345 7.95696 22.4345 8.70634C22.4345 9.45572 22.2868 10.1977 22 10.89C21.7131 11.5823 21.2927 12.2112 20.7628 12.741L12.7065 20.7972C12.4362 21.0676 11.9978 21.0676 11.7274 20.7972L3.67121 12.741C2.60115 11.6709 2 10.2196 2 8.70634C2 7.19305 2.60115 5.74175 3.67121 4.67169C4.74126 3.60164 6.19257 3.00049 7.70585 3.00049C9.21914 3.00049 10.6704 3.60164 11.7405 4.67169L12.217 5.14818L12.6934 4.67181C13.2231 4.1418 13.8521 3.72135 14.5444 3.4345Z" fill="#AD896C"></path>
  </symbol>
  <symbol  xmlns="http://www.w3.org/2000/svg" viewBox="0 0 24 24" id="instagram">
    <path d="M12.0027 7.89154C9.73409 7.89154 7.89746 9.73018 7.89746 11.9968C7.89746 14.2654 9.73609 16.1021 12.0027 16.1021C14.2713 16.1021 16.108 14.2634 16.108 11.9968C16.108 9.72818 14.2693 7.89154 12.0027 7.89154V7.89154ZM12.0027 14.6614C10.5301 14.6614 9.3381 13.4688 9.3381 11.9968C9.3381 10.5248 10.5307 9.33218 12.0027 9.33218C13.4747 9.33218 14.6673 10.5248 14.6673 11.9968C14.668 13.4688 13.4754 14.6614 12.0027 14.6614V14.6614Z" ></path>
    <path d="M15.2986 4.05026C13.8266 3.98159 10.1807 3.98492 8.7074 4.05026C7.41276 4.11092 6.27078 4.42358 5.35013 5.34423C3.81149 6.88287 4.00815 8.95617 4.00815 11.9968C4.00815 15.1087 3.83482 17.134 5.35013 18.6493C6.89477 20.1933 8.99806 19.9913 12.0027 19.9913C15.0853 19.9913 16.1493 19.9933 17.2393 19.5713C18.7212 18.996 19.8399 17.6714 19.9492 15.2921C20.0185 13.8194 20.0145 10.1741 19.9492 8.70084C19.8172 5.89222 18.3099 4.18892 15.2986 4.05026V4.05026ZM17.6286 17.6314C16.6199 18.64 15.2206 18.55 11.9833 18.55C8.65007 18.55 7.31343 18.5993 6.33811 17.6214C5.2148 16.5034 5.41813 14.7081 5.41813 11.9861C5.41813 8.30285 5.04013 5.65023 8.73674 5.4609C9.58605 5.4309 9.83605 5.4209 11.974 5.4209L12.004 5.4409C15.5566 5.4409 18.3439 5.06891 18.5112 8.76484C18.5492 9.60816 18.5579 9.86149 18.5579 11.9961C18.5572 15.2907 18.6199 16.6354 17.6286 17.6314V17.6314Z" ></path>
    <path d="M16.2708 8.68883C16.8007 8.68883 17.2302 8.25933 17.2302 7.72952C17.2302 7.1997 16.8007 6.7702 16.2708 6.7702C15.741 6.7702 15.3115 7.1997 15.3115 7.72952C15.3115 8.25933 15.741 8.68883 16.2708 8.68883Z" ></path>
  </symbol>
  <symbol  xmlns="http://www.w3.org/2000/svg" viewBox="0 0 24 24" id="linkedin">
    <path d="M19.9958 20.0001V19.9994H19.9998V14.1315C19.9998 11.2608 19.3818 9.0495 16.0258 9.0495C14.4125 9.0495 13.3298 9.93483 12.8878 10.7742H12.8412V9.3175H9.65918V19.9994H12.9725V14.7101C12.9725 13.3175 13.2365 11.9708 14.9611 11.9708C16.6604 11.9708 16.6858 13.5601 16.6858 14.7994V20.0001H19.9958Z" ></path>
    <path d="M4.26367 9.31812H7.58098V20H4.26367V9.31812Z" ></path>
    <path d="M5.92132 4C4.86066 4 4 4.86066 4 5.92132C4 6.98197 4.86066 7.86063 5.92132 7.86063C6.98197 7.86063 7.84263 6.98197 7.84263 5.92132C7.84196 4.86066 6.98131 4 5.92132 4V4Z" ></path>
  </symbol>
  <symbol  xmlns="http://www.w3.org/2000/svg" viewBox="0 0 24 24" id="list">
    <path d="M8 6H21M8 12H21M8 18H21M3 6H3.01M3 12H3.01M3 18H3.01"  stroke-linecap="round" stroke-linejoin="round"></path>
  </symbol>
  <symbol  xmlns="http://www.w3.org/2000/svg" viewBox="0 0 24 24" id="map-pin">
    <path d="M19.5 10.3636C19.5 16.0909 12.25 21 12.25 21C12.25 21 5 16.0909 5 10.3636C5 8.41068 5.76384 6.53771 7.12348 5.15676C8.48311 3.77581 10.3272 3 12.25 3C14.1728 3 16.0169 3.77581 17.3765 5.15676C18.7362 6.53771 19.5 8.41068 19.5 10.3636Z"  stroke-linecap="round" stroke-linejoin="round"></path>
    <path d="M12.25 12.8182C13.5847 12.8182 14.6667 11.7192 14.6667 10.3636C14.6667 9.00803 13.5847 7.90909 12.25 7.90909C10.9153 7.90909 9.83333 9.00803 9.83333 10.3636C9.83333 11.7192 10.9153 12.8182 12.25 12.8182Z"  stroke-linecap="round" stroke-linejoin="round"></path>
  </symbol>
  <symbol  xmlns="http://www.w3.org/2000/svg" viewBox="0 0 24 24" id="menu">
    <path d="M3 12H21M3 6H21M3 18H21"  stroke-linecap="round" stroke-linejoin="round"></path>
  </symbol>
  <symbol  xmlns="http://www.w3.org/2000/svg" viewBox="0 0 24 24" id="minus">
    <path d="M5 12H19"  stroke-linecap="round" stroke-linejoin="round"></path>
  </symbol>
  <symbol  xmlns="http://www.w3.org/2000/svg" viewBox="0 0 24 24" id="package">
    <path d="M16.1028 9.6323L8.03428 4.97944M4.24206 7.44483L12.0686 11.9722L19.895 7.44483M12.0686 21V11.9632M20.1371 15.5492V8.3772C20.1368 8.06277 20.0538 7.75395 19.8964 7.48173C19.7391 7.20951 19.5129 6.98346 19.2406 6.82624L12.9651 3.24022C12.6925 3.08285 12.3833 3 12.0686 3C11.7538 3 11.4446 3.08285 11.172 3.24022L4.89651 6.82624C4.6242 6.98346 4.39803 7.20951 4.24068 7.48173C4.08332 7.75395 4.00032 8.06277 4 8.3772V15.5492C4.00032 15.8637 4.08332 16.1725 4.24068 16.4447C4.39803 16.7169 4.6242 16.943 4.89651 17.1002L11.172 20.6862C11.4446 20.8436 11.7538 20.9264 12.0686 20.9264C12.3833 20.9264 12.6925 20.8436 12.9651 20.6862L19.2406 17.1002C19.5129 16.943 19.7391 16.7169 19.8964 16.4447C20.0538 16.1725 20.1368 15.8637 20.1371 15.5492Z" stroke-linecap="round" stroke-linejoin="round"></path>
  </symbol>
  <symbol  xmlns="http://www.w3.org/2000/svg" viewBox="0 0 24 24" id="play">
    <path d="M5 3L19 12L5 21V3Z"  stroke-linecap="round" stroke-linejoin="round"></path>
  </symbol>
  <symbol  xmlns="http://www.w3.org/2000/svg" viewBox="0 0 24 24" id="search">
    <path d="M21 21L16.65 16.65M19 11C19 15.4183 15.4183 19 11 19C6.58172 19 3 15.4183 3 11C3 6.58172 6.58172 3 11 3C15.4183 3 19 6.58172 19 11Z"  stroke-linecap="round" stroke-linejoin="round"></path>
  </symbol>
  <symbol  xmlns="http://www.w3.org/2000/svg" viewBox="0 0 24 24" id="share">
    <path d="M8.96889 13.359L15.04 16.941M15.0311 7.059L8.96889 10.641M20 5.7C20 7.19117 18.8061 8.4 17.3333 8.4C15.8606 8.4 14.6667 7.19117 14.6667 5.7C14.6667 4.20883 15.8606 3 17.3333 3C18.8061 3 20 4.20883 20 5.7ZM9.33333 12C9.33333 13.4912 8.13943 14.7 6.66667 14.7C5.19391 14.7 4 13.4912 4 12C4 10.5088 5.19391 9.3 6.66667 9.3C8.13943 9.3 9.33333 10.5088 9.33333 12ZM20 18.3C20 19.7912 18.8061 21 17.3333 21C15.8606 21 14.6667 19.7912 14.6667 18.3C14.6667 16.8088 15.8606 15.6 17.3333 15.6C18.8061 15.6 20 16.8088 20 18.3Z"  stroke-linecap="round" stroke-linejoin="round"></path>
  </symbol>
  <symbol  xmlns="http://www.w3.org/2000/svg" viewBox="0 0 24 24" id="shopping-bag">
    <path d="M4 6.6L6.7 3H17.5L20.2 6.6M4 6.6V19.2C4 19.6774 4.18964 20.1352 4.52721 20.4728C4.86477 20.8104 5.32261 21 5.8 21H18.4C18.8774 21 19.3352 20.8104 19.6728 20.4728C20.0104 20.1352 20.2 19.6774 20.2 19.2V6.6M4 6.6H20.2M15.7 10.2C15.7 11.1548 15.3207 12.0705 14.6456 12.7456C13.9705 13.4207 13.0548 13.8 12.1 13.8C11.1452 13.8 10.2295 13.4207 9.55442 12.7456C8.87928 12.0705 8.5 11.1548 8.5 10.2"  stroke-linecap="round" stroke-linejoin="round"></path>
  </symbol>
  <symbol  xmlns="http://www.w3.org/2000/svg" viewBox="0 0 24 24" id="star">
    <path d="M12.4637 3L15.388 8.92429L21.9274 9.88013L17.1956 14.489L18.3123 21L12.4637 17.9243L6.61514 21L7.73186 14.489L3 9.88013L9.53943 8.92429L12.4637 3Z"  stroke-linecap="round" stroke-linejoin="round"></path>
  </symbol>
  <symbol  xmlns="http://www.w3.org/2000/svg" viewBox="0 0 24 24" id="star-1">
    <path opacity="0.8" d="M12.884 3.29648L15.285 8.97909L21.4317 9.50714C21.858 9.54396 22.0314 10.0759 21.7078 10.3559L17.0455 14.3953L18.4426 20.4044C18.5395 20.822 18.087 21.1504 17.7208 20.9286L12.4383 17.7428L7.15589 20.9286C6.78868 21.1495 6.33717 20.821 6.43406 20.4044L7.83122 14.3953L3.16789 10.3549C2.84428 10.0749 3.01674 9.54299 3.44403 9.50617L9.59074 8.97812L11.9917 3.29648C12.1583 2.90117 12.7174 2.90117 12.884 3.29648Z" fill="#D1752F"></path>
  </symbol>
  <symbol  xmlns="http://www.w3.org/2000/svg" viewBox="0 0 24 24" id="tag">
    <path d="M7.69568 7.69568H7.70507M20.4585 13.7155L13.7249 20.4491C13.5505 20.6238 13.3433 20.7623 13.1153 20.8568C12.8873 20.9513 12.6429 21 12.396 21C12.1492 21 11.9048 20.9513 11.6768 20.8568C11.4488 20.7623 11.2416 20.6238 11.0672 20.4491L3 12.3914V3H12.3914L20.4585 11.0672C20.8083 11.4191 21.0047 11.8951 21.0047 12.3914C21.0047 12.8876 20.8083 13.3636 20.4585 13.7155Z"  stroke-linecap="round" stroke-linejoin="round"></path>
  </symbol>
  <symbol  xmlns="http://www.w3.org/2000/svg" viewBox="0 0 24 24" id="trash">
    <path d="M4 6.6H5.8M5.8 6.6H20.2M5.8 6.6V19.2C5.8 19.6774 5.98964 20.1352 6.32721 20.4728C6.66477 20.8104 7.12261 21 7.6 21H16.6C17.0774 21 17.5352 20.8104 17.8728 20.4728C18.2104 20.1352 18.4 19.6774 18.4 19.2V6.6H5.8ZM8.5 6.6V4.8C8.5 4.32261 8.68964 3.86477 9.02721 3.52721C9.36477 3.18964 9.82261 3 10.3 3H13.9C14.3774 3 14.8352 3.18964 15.1728 3.52721C15.5104 3.86477 15.7 4.32261 15.7 4.8V6.6"  stroke-linecap="round" stroke-linejoin="round"></path>
  </symbol>
  <symbol  xmlns="http://www.w3.org/2000/svg" viewBox="0 0 24 24" id="twitter">
    <path d="M19.6689 7.99015C20.4697 7.42154 21.1434 6.71179 21.6923 5.89456V5.89374C20.9596 6.21456 20.1801 6.4279 19.3662 6.53128C20.2031 6.03159 20.8423 5.24636 21.1426 4.30031C20.3623 4.76554 19.5007 5.09374 18.5826 5.27754C17.8416 4.48821 16.7856 4 15.6336 4C13.3986 4 11.5992 5.81415 11.5992 8.03774C11.5992 8.35774 11.6263 8.66544 11.6927 8.95836C8.33682 8.79426 5.36656 7.18605 3.37108 4.73518C3.02318 5.3399 2.81805 6.03159 2.81805 6.77579C2.81805 8.17395 3.53764 9.41292 4.61169 10.1309C3.96267 10.1186 3.32677 9.92985 2.78769 9.63364V9.67795C2.78769 11.6398 4.18667 13.2693 6.02215 13.6451C5.69313 13.7354 5.33538 13.7781 4.96369 13.7781C4.70523 13.7781 4.44431 13.7633 4.19979 13.7091C4.72246 15.3075 6.20759 16.4833 7.97169 16.5218C6.59815 17.5959 4.85374 18.2433 2.96574 18.2433C2.63508 18.2433 2.31754 18.2285 2 18.1883C3.78872 19.3411 5.90728 20 8.19323 20C15.3177 20 19.961 14.0562 19.6689 7.99015V7.99015Z" ></path>
  </symbol>
  <symbol  xmlns="http://www.w3.org/2000/svg" viewBox="0 0 24 24" id="user">
    <path d="M20 21V19C20 17.9391 19.5786 16.9217 18.8284 16.1716C18.0783 15.4214 17.0609 15 16 15H8C6.93913 15 5.92172 15.4214 5.17157 16.1716C4.42143 16.9217 4 17.9391 4 19V21M16 7C16 9.20914 14.2091 11 12 11C9.79086 11 8 9.20914 8 7C8 4.79086 9.79086 3 12 3C14.2091 3 16 4.79086 16 7Z"  stroke-linecap="round" stroke-linejoin="round"></path>
  </symbol>
  <symbol  xmlns="http://www.w3.org/2000/svg" viewBox="0 0 24 24" id="wallet">
    <path d="M20.6552 9.69502C20.431 9.49089 20.1379 9.3548 19.8103 9.3548C19.8276 9.3548 19.8448 9.3548 19.8621 9.3548V7.60267C19.8621 6.88821 19.569 6.2418 19.0862 5.76549C18.6034 5.28919 17.9483 5 17.2241 5H5.63793C4.91379 5 4.25862 5.28919 3.77586 5.76549C3.2931 6.2418 3 6.88821 3 7.60267V16.3973C3 17.1118 3.2931 17.7582 3.77586 18.2345C4.25862 18.7108 4.91379 19 5.63793 19H17.2241C17.9483 19 18.6034 18.7108 19.0862 18.2345C19.569 17.7582 19.8621 17.1118 19.8621 16.3973V14.6282C19.8448 14.6282 19.8276 14.6282 19.8103 14.6282C20.1379 14.6282 20.431 14.4921 20.6552 14.288C20.8621 14.0838 21 13.7776 21 13.4544V10.5286C21 10.2053 20.8621 9.91616 20.6552 9.69502ZM18.9138 16.3803C18.9138 16.8396 18.7241 17.2479 18.4138 17.5541C18.1034 17.8603 17.6897 18.0474 17.2241 18.0474H5.63793C5.17241 18.0474 4.75862 17.8603 4.44828 17.5541C4.13793 17.2479 3.94828 16.8396 3.94828 16.3803V7.60267C3.94828 7.14338 4.13793 6.73512 4.44828 6.42892C4.75862 6.12272 5.17241 5.9356 5.63793 5.9356H17.2241C17.6897 5.9356 18.1034 6.12272 18.4138 6.42892C18.7241 6.73512 18.9138 7.14338 18.9138 7.60267V9.3548H13.569C12.8448 9.3548 12.2069 9.64399 11.7241 10.1033C11.2586 10.5626 10.9655 11.209 10.9655 11.9235V12.0425C10.9655 12.757 11.2586 13.3864 11.7241 13.8627C12.1897 14.322 12.8448 14.6112 13.569 14.6112H18.9138V16.3803V16.3803ZM20.0517 13.4544C20.0517 13.5225 20.0172 13.5905 19.9828 13.6245C19.931 13.6756 19.8793 13.6926 19.8103 13.6926H13.569C13.1207 13.6926 12.6897 13.5055 12.3966 13.2163C12.1034 12.9271 11.9138 12.5018 11.9138 12.0595V11.9405C11.9138 11.4812 12.1034 11.0729 12.3966 10.7837C12.7069 10.4775 13.1207 10.3074 13.569 10.3074H19.8103C19.8793 10.3074 19.9483 10.3414 19.9828 10.3755C20.0345 10.4265 20.0517 10.4775 20.0517 10.5456V13.4544Z" fill="#131313"></path>
    <path d="M13.6893 11.2261C13.4824 11.2261 13.2927 11.3111 13.1548 11.4472C13.0169 11.5833 12.9307 11.7704 12.9307 11.9746C12.9307 12.1787 13.0169 12.3658 13.1548 12.5019C13.2927 12.638 13.4824 12.723 13.6893 12.723C13.8962 12.723 14.0858 12.638 14.241 12.5019C14.379 12.3658 14.4652 12.1787 14.4652 11.9575C14.4652 11.7534 14.379 11.5663 14.241 11.4132C14.0858 11.3111 13.8962 11.2261 13.6893 11.2261Z" fill="#131313"></path>
  </symbol>
  <symbol  xmlns="http://www.w3.org/2000/svg" viewBox="0 0 24 24" id="zoom-in">
    <path d="M21 21L16.65 16.65M11 8V14M8 11H14M19 11C19 15.4183 15.4183 19 11 19C6.58172 19 3 15.4183 3 11C3 6.58172 6.58172 3 11 3C15.4183 3 19 6.58172 19 11Z"  stroke-linecap="round" stroke-linejoin="round"></path>
  </symbol>
  <symbol  xmlns="http://www.w3.org/2000/svg" viewBox="0 0 24 24" id="Arrow_Down_LG">
    <path d="M3 12L21 12"  stroke-linecap="round" stroke-linejoin="round"></path>
    <path d="M16 7L21 12L16 17"  stroke-linecap="round" stroke-linejoin="round"></path>
  </symbol>
  <symbol  xmlns="http://www.w3.org/2000/svg" viewBox="0 0 24 24" id="arrow-left">
    <path d="M19 12H5M5 12L12 19M5 12L12 5"  stroke-linecap="round" stroke-linejoin="round"></path>
  </symbol>
  <symbol  xmlns="http://www.w3.org/2000/svg" viewBox="0 0 24 24" id="arrow-right">
    <path d="M5 12H19M19 12L12 5M19 12L12 19"  stroke-linecap="round" stroke-linejoin="round"></path>
  </symbol>
  <symbol  xmlns="http://www.w3.org/2000/svg" viewBox="0 0 24 24" id="calendar">
    <path d="M15.7 3V6.6M8.5 3V6.6M4 10.2H20.2M5.8 4.8H18.4C19.3941 4.8 20.2 5.60589 20.2 6.6V19.2C20.2 20.1941 19.3941 21 18.4 21H5.8C4.80589 21 4 20.1941 4 19.2V6.6C4 5.60589 4.80589 4.8 5.8 4.8Z"  stroke-linecap="round" stroke-linejoin="round"></path>
  </symbol>
</svg>